<svg xmlns="http://www.w3.org/2000/svg" xmlns:xlink="http://www.w3.org/1999/xlink" width="1080" zoomAndPan="magnify" viewBox="0 0 810 1012.49997" height="1350" preserveAspectRatio="xMidYMid meet" version="1.2"><g id="2c403265a3"><path style=" stroke:none;fill-rule:evenodd;fill:#000000;fill-opacity:1;" d="M 89.292969 818.582031 C 106.210938 823.285156 107.332031 823.34375 118.199219 820.109375 C 123.265625 818.597656 132.566406 816.859375 138.867188 816.25 C 148.058594 815.359375 151.011719 814.34375 153.832031 811.097656 C 156.875 807.59375 158.804688 807.058594 168.351562 807.058594 C 174.40625 807.058594 185.382812 805.902344 192.746094 804.496094 C 204.640625 802.21875 218.265625 801.042969 270.6875 797.769531 C 293.214844 796.363281 322.363281 792.894531 327.664062 790.988281 C 328.125 790.824219 330.199219 790.136719 332.273438 789.460938 C 334.34375 788.785156 336.042969 787.523438 336.042969 786.65625 C 336.042969 785.785156 336.796875 785.542969 337.71875 786.113281 C 338.640625 786.683594 339.394531 788.566406 339.394531 790.304688 C 339.394531 793.214844 341.140625 793.507812 361.597656 793.976562 C 373.808594 794.257812 384.375 794.066406 385.074219 793.550781 C 387.292969 791.917969 358.460938 763.492188 354.585938 763.492188 C 350.253906 763.492188 347.9375 758.054688 346.769531 745.160156 C 346.164062 738.441406 346.410156 736.542969 347.660156 738.355469 C 348.617188 739.738281 349.40625 743.746094 349.421875 747.265625 C 349.453125 755.53125 351.671875 759.492188 357.015625 760.832031 C 359.378906 761.429688 360.890625 762.601562 360.371094 763.441406 C 359.851562 764.285156 362.101562 766.242188 365.371094 767.792969 C 368.644531 769.347656 373.375 773.519531 375.882812 777.070312 C 378.394531 780.621094 380.9375 783.542969 381.535156 783.5625 C 382.128906 783.582031 384.96875 785.660156 387.835938 788.179688 C 392.816406 792.546875 393.933594 792.769531 412.164062 793.042969 C 431.054688 793.328125 431.289062 793.285156 432.289062 789.300781 C 433.535156 784.335938 439.265625 783.875 440.773438 788.621094 C 442.089844 792.769531 448.222656 794.4375 456.367188 792.863281 C 465.910156 791.019531 485.183594 790.578125 485.183594 792.203125 C 485.183594 793 487.015625 793.652344 489.257812 793.652344 C 491.988281 793.652344 493.722656 792.433594 494.507812 789.960938 C 495.679688 786.265625 499.179688 781.921875 500.984375 781.921875 C 501.507812 781.921875 501.941406 784.53125 501.941406 787.722656 C 501.941406 798.023438 505.941406 799.945312 525.859375 799.207031 C 552.886719 798.207031 560.589844 797.117188 560.589844 794.292969 C 560.589844 792.429688 561.925781 792.058594 566.035156 792.777344 C 569.03125 793.304688 575.082031 794.375 579.476562 795.160156 C 585.476562 796.226562 587.777344 796.042969 588.691406 794.414062 C 589.636719 792.742188 591.835938 792.617188 598.292969 793.867188 C 606.460938 795.453125 646.242188 794.507812 654.058594 792.546875 C 656.679688 791.890625 659.183594 792.679688 661.644531 794.941406 C 669.460938 802.117188 683.75 801.082031 687.648438 793.0625 C 688.867188 790.558594 691.03125 782.769531 692.460938 775.761719 C 694.84375 764.074219 694.835938 762.890625 692.339844 761.496094 C 690.789062 760.628906 689.621094 757.847656 689.621094 755.03125 C 689.621094 751.308594 688.84375 750.085938 686.472656 750.085938 C 684.554688 750.085938 682.511719 748.121094 681.242188 745.058594 C 679.433594 740.695312 678.304688 740.03125 672.660156 740.03125 C 668.113281 740.03125 666.160156 739.304688 666.160156 737.613281 C 666.160156 736.285156 663.96875 733.902344 661.289062 732.320312 C 658.472656 730.652344 656.035156 727.523438 655.507812 724.890625 C 654.25 718.597656 643.632812 710.660156 627.535156 703.972656 C 610.847656 697.039062 600.503906 691.085938 590.753906 682.804688 C 583.589844 676.722656 583.167969 676.578125 582.335938 679.992188 C 581.015625 685.410156 576.273438 687.832031 573.621094 684.4375 C 570.441406 680.363281 548.648438 677.09375 544.003906 679.992188 C 541.089844 681.816406 539.863281 681.804688 536.890625 679.949219 C 534.0625 678.183594 527.832031 677.960938 507.75 678.902344 L 482.203125 680.101562 L 481.214844 670.269531 C 479.644531 654.648438 478.382812 631.492188 476.847656 590.066406 C 475.8125 562.152344 474.6875 549.515625 472.769531 544.230469 C 469.785156 535.996094 470.355469 533.941406 475.644531 533.917969 C 483.0625 533.882812 496.570312 526.039062 500.644531 519.394531 C 509.289062 505.296875 510.488281 499.621094 505.117188 498.214844 C 500.09375 496.902344 502.050781 493.167969 508.445312 491.863281 C 511.421875 491.253906 514.917969 489.347656 516.210938 487.628906 C 518.792969 484.203125 533.816406 448.296875 537.144531 437.589844 C 539.910156 428.695312 542.878906 425.574219 549.808594 424.273438 C 552.972656 423.679688 555.5625 422.429688 555.5625 421.496094 C 555.5625 420.5625 556.261719 420.230469 557.113281 420.753906 C 559.910156 422.484375 576.621094 415.074219 583.808594 408.921875 C 593.179688 400.902344 595.566406 395.765625 597.539062 379.351562 C 600.109375 357.96875 600.527344 356.769531 606.792969 352.898438 C 614.675781 348.023438 614.613281 342.917969 606.671875 342.917969 C 601.925781 342.917969 600.808594 342.277344 600.808594 339.566406 C 600.808594 336.664062 601.925781 336.214844 609.1875 336.214844 L 617.566406 336.214844 L 617.566406 327.894531 C 617.566406 321.292969 616.875 319.207031 614.214844 317.785156 C 611.296875 316.222656 610.847656 314.199219 610.734375 302.226562 C 610.519531 278.886719 605.792969 272.367188 587.246094 269.832031 C 583.183594 269.277344 579.523438 268.503906 579.109375 268.117188 C 578.699219 267.726562 577.328125 269.128906 576.0625 271.234375 C 574.800781 273.335938 574.160156 273.761719 574.644531 272.175781 C 575.832031 268.296875 573.84375 267.359375 563.949219 267.136719 C 559.335938 267.03125 555.5625 266.320312 555.5625 265.554688 C 555.5625 264.789062 556.945312 264.164062 558.636719 264.164062 C 563.0625 264.164062 563.527344 263.1875 562.402344 256.269531 C 561.476562 250.570312 560.796875 249.929688 553.871094 248.246094 L 546.347656 246.417969 L 534.648438 223.875 C 521.300781 198.148438 507.90625 182.492188 487.90625 169.242188 C 463.855469 153.304688 453.011719 153.035156 421.496094 167.589844 C 396.3125 179.222656 398.773438 178.183594 373.023438 188.011719 C 357.527344 193.921875 350.351562 197.648438 345.027344 202.5625 C 339.558594 207.601562 334.175781 210.339844 322.289062 214.132812 C 313.726562 216.867188 305.964844 219.273438 305.042969 219.480469 C 300.519531 220.496094 298.957031 222.835938 300.003906 227.019531 C 301.0625 231.234375 300.984375 231.292969 297.914062 228.511719 C 296.023438 226.804688 292.015625 225.625 288.089844 225.625 C 282.371094 225.625 280.394531 226.726562 273.765625 233.585938 C 265.917969 241.707031 262.453125 249.617188 265.835938 251.703125 C 266.859375 252.335938 267.050781 253.324219 266.261719 253.902344 C 265.46875 254.476562 261.890625 263.621094 258.308594 274.21875 C 254.726562 284.816406 250.773438 295.144531 249.527344 297.171875 C 246.8125 301.589844 237.800781 304.355469 226.089844 304.367188 C 220.472656 304.375 216.140625 305.414062 213.523438 307.378906 C 211.324219 309.027344 207.492188 311.253906 205.003906 312.328125 C 195.109375 316.601562 194.878906 318.027344 195.578125 370.949219 C 196.273438 423.421875 196.652344 425.613281 206.367188 433.253906 C 214.734375 439.832031 222.058594 440.875 244.386719 438.644531 C 255.625 437.523438 267.335938 436.167969 270.402344 435.628906 L 275.984375 434.652344 L 274.867188 442.105469 C 274.230469 446.355469 274.597656 452.703125 275.726562 456.886719 C 277.417969 463.171875 277.316406 464.496094 275.03125 466.167969 C 271.207031 468.96875 271.632812 475.410156 275.714844 476.480469 C 277.558594 476.960938 279.066406 477.960938 279.066406 478.699219 C 279.066406 479.4375 279.546875 481.289062 280.128906 482.8125 C 281.039062 485.179688 280.332031 485.417969 275.242188 484.464844 L 269.292969 483.347656 L 268.082031 493.054688 C 266.597656 504.9375 269.859375 515.738281 279.832031 531.972656 C 287.285156 544.105469 292.96875 548.707031 307.292969 554.207031 C 318.429688 558.484375 347.515625 560.398438 359.457031 557.640625 C 363.578125 556.6875 367.21875 556.171875 367.542969 556.492188 C 367.863281 556.820312 364.691406 575.816406 360.488281 598.707031 C 350.089844 655.335938 345.769531 682.851562 346.964844 684.789062 C 347.519531 685.683594 351.886719 686.425781 356.667969 686.4375 C 367.941406 686.472656 364.207031 689.085938 350.636719 690.660156 C 341.875 691.675781 339.671875 691.28125 331.769531 687.28125 C 326.84375 684.792969 321.925781 683.304688 320.835938 683.976562 C 319.410156 684.859375 319.621094 685.632812 321.585938 686.730469 C 323.085938 687.570312 324.3125 689.824219 324.3125 691.742188 C 324.3125 694.96875 323.675781 695.140625 315.605469 694.070312 C 310.8125 693.433594 305.765625 692.28125 304.390625 691.511719 C 302.878906 690.664062 300.515625 690.976562 298.4375 692.296875 C 296.539062 693.5 290.460938 695.339844 284.933594 696.378906 C 264.738281 700.1875 265.675781 699.671875 272.363281 703.246094 C 275.589844 704.972656 280.503906 706.414062 283.28125 706.449219 C 286.0625 706.488281 291.003906 707.953125 294.269531 709.703125 C 301.027344 713.324219 333.269531 723.277344 338.246094 723.277344 C 342.214844 723.277344 346.035156 727.886719 345.878906 732.492188 C 345.785156 735.257812 345.5625 735.136719 344.632812 731.804688 C 343.648438 728.277344 341.191406 727.15625 325.445312 723.050781 C 315.511719 720.460938 306.585938 717.847656 305.605469 717.242188 C 304.628906 716.640625 303.085938 717.183594 302.183594 718.453125 C 300.90625 720.242188 300.75 720.101562 301.480469 717.832031 C 302.082031 715.957031 301.550781 714.898438 300.003906 714.898438 C 298.671875 714.898438 295.113281 713.394531 292.09375 711.554688 C 289.078125 709.714844 284.316406 708.207031 281.515625 708.203125 C 276.097656 708.195312 265.941406 703.691406 261.625 699.375 C 258.722656 696.46875 252.257812 697.34375 252.257812 700.636719 C 252.257812 701.9375 249.074219 703.050781 243.949219 703.542969 C 237.414062 704.171875 234.613281 705.441406 230.828125 709.492188 C 227.734375 712.804688 223.675781 715.03125 219.445312 715.742188 C 215.832031 716.34375 207.050781 718.289062 199.933594 720.058594 C 192.8125 721.828125 184.332031 723.277344 181.082031 723.277344 C 177.832031 723.277344 175.171875 724.007812 175.171875 724.90625 C 175.171875 725.800781 171.371094 728.171875 166.726562 730.167969 C 160.433594 732.875 157.242188 735.570312 154.214844 740.738281 C 148.582031 750.347656 143.183594 754.972656 125.738281 765.132812 C 97.539062 781.558594 81.746094 794.511719 78.082031 804.234375 C 74.527344 813.660156 75.339844 814.699219 89.292969 818.582031 M 263.808594 751.761719 C 264.628906 751.761719 265.761719 750.570312 266.320312 749.113281 C 267.894531 745.011719 267.550781 744.472656 264.824219 746.734375 C 262.039062 749.046875 261.488281 751.761719 263.808594 751.761719 M 316.53125 453.519531 C 318.707031 457.660156 320.960938 463.039062 321.546875 465.46875 C 322.929688 471.234375 324.355469 471.671875 348.386719 473.703125 C 394.371094 477.589844 409.917969 480.695312 415.761719 487.152344 C 418.292969 489.949219 418.171875 490.574219 414.027344 496.003906 C 406.730469 505.566406 400.039062 508.402344 377.570312 511.445312 C 373.222656 512.035156 368.703125 513.675781 367.527344 515.09375 C 364.136719 519.179688 388.203125 516.941406 398.882812 512.179688 C 403.492188 510.125 410.5625 507.578125 414.597656 506.527344 C 420.847656 504.894531 422.210938 503.742188 423.8125 498.746094 C 425.664062 492.980469 425.863281 492.875 435.75 492.453125 C 459.3125 491.445312 473.894531 488.863281 478.097656 484.949219 C 483.359375 480.050781 493.601562 459.628906 499.210938 442.84375 C 504.496094 427.035156 504.574219 425.164062 500.277344 417.882812 C 498.445312 414.773438 495.457031 407.914062 493.644531 402.640625 C 491.832031 397.367188 488.710938 390.757812 486.710938 387.953125 C 483.550781 383.515625 483.203125 381.390625 484.054688 371.679688 C 484.589844 365.535156 485.367188 358.625 485.777344 356.320312 C 486.191406 354.019531 487.375 346.515625 488.410156 339.648438 C 490.300781 327.113281 491.46875 324.519531 501.535156 310.5 C 506.933594 302.980469 506.96875 302.820312 504.554688 295.679688 C 503.214844 291.710938 501.96875 283.183594 501.789062 276.730469 C 501.46875 265.488281 501.1875 264.746094 494.992188 258.785156 C 491.441406 255.367188 488.535156 251.492188 488.535156 250.167969 C 488.535156 248.851562 486.621094 247.292969 484.285156 246.703125 C 481.949219 246.117188 479.359375 243.855469 478.53125 241.679688 C 477.566406 239.136719 474.285156 236.667969 469.375 234.792969 C 465.164062 233.1875 461.722656 230.84375 461.722656 229.585938 C 461.722656 228.214844 459.878906 227.292969 457.113281 227.28125 C 454.578125 227.269531 447.996094 224.972656 442.488281 222.179688 C 433.109375 217.421875 431.390625 217.121094 415.675781 217.433594 C 386.890625 218.011719 369.300781 221.449219 351.5625 229.964844 C 335.632812 237.609375 329.394531 243.675781 329.320312 251.597656 C 329.300781 253.671875 328.820312 254.210938 328.058594 253.011719 C 327.378906 251.949219 326.789062 254.214844 326.742188 258.039062 C 326.699219 261.867188 326.085938 268.582031 325.386719 272.953125 C 324.355469 279.367188 323.347656 281.097656 320.183594 281.890625 C 317.160156 282.652344 316.089844 284.285156 315.53125 289.019531 C 315.128906 292.398438 314.234375 296.445312 313.542969 298.007812 C 312.109375 301.265625 314.246094 301.207031 365.367188 296.550781 C 381.035156 295.125 396.664062 293.71875 400.089844 293.433594 C 403.519531 293.144531 406.933594 292.53125 407.679688 292.070312 C 408.421875 291.613281 416.273438 290.753906 425.132812 290.160156 L 441.230469 289.082031 L 444.53125 293.796875 C 449.707031 301.199219 450.632812 313.3125 446.621094 321.167969 C 442.132812 329.96875 442.414062 333.425781 448.148438 339.957031 C 452.792969 345.246094 452.894531 345.703125 450.46875 350.332031 C 448.554688 353.984375 447.882812 361.496094 447.726562 380.894531 C 447.542969 403.386719 447.164062 406.730469 444.707031 407.511719 C 443.160156 408 441.0625 410.789062 440.042969 413.707031 C 439.027344 416.625 436.570312 420.742188 434.585938 422.855469 C 431.242188 426.414062 429.605469 426.695312 412.414062 426.683594 C 402.207031 426.679688 384.171875 427.550781 372.335938 428.625 C 357.402344 429.980469 350.476562 430.042969 349.710938 428.828125 C 348.957031 427.628906 345.183594 427.792969 337.71875 429.363281 C 331.726562 430.625 323.621094 431.671875 319.703125 431.6875 L 312.582031 431.722656 L 312.582031 438.859375 C 312.582031 443.109375 314.179688 449.039062 316.53125 453.519531 M 361.445312 407.59375 C 363.476562 408.847656 364.058594 408.265625 364.789062 404.25 C 365.109375 402.503906 364.523438 400.777344 363.484375 400.410156 C 361.121094 399.582031 359.234375 406.226562 361.445312 407.59375 M 392.496094 681.804688 C 393.070312 684.003906 395.015625 684.742188 400.261719 684.757812 C 404.109375 684.765625 410.023438 685.234375 413.402344 685.789062 C 419 686.714844 419.773438 686.355469 422.199219 681.667969 C 423.660156 678.839844 424.855469 672.527344 424.855469 667.636719 C 424.855469 662.746094 425.648438 656.109375 426.617188 652.890625 C 427.585938 649.671875 429.414062 630.816406 430.683594 610.992188 C 432.519531 582.203125 433.710938 573.011719 436.589844 565.3125 C 439.042969 558.75 439.832031 554.023438 439.058594 550.507812 C 438.050781 545.914062 437.425781 545.460938 433.484375 546.441406 C 431.042969 547.046875 422.382812 548.75 414.238281 550.226562 C 402.105469 552.421875 399.199219 553.539062 398.152344 556.40625 C 397.0625 559.390625 390.835938 672.425781 391.496094 677.199219 C 391.625 678.121094 392.074219 680.195312 392.496094 681.804688 M 399.71875 755.597656 C 403.699219 756.640625 403.6875 756.683594 400.8125 751.140625 C 398.453125 746.59375 396.367188 746.921875 396.367188 751.847656 C 396.367188 753.425781 397.878906 755.117188 399.71875 755.597656 M 430.808594 196.773438 C 431.320312 196.261719 437.164062 197.253906 443.796875 198.976562 C 450.429688 200.699219 459.113281 202.121094 463.089844 202.140625 C 469.996094 202.164062 470.300781 201.960938 469.792969 197.5625 C 469.328125 193.539062 468.207031 192.714844 460.882812 191.019531 C 456.277344 189.957031 449.605469 189.011719 446.0625 188.921875 C 439.628906 188.761719 429.882812 193.089844 429.882812 196.105469 C 429.882812 196.980469 430.300781 197.28125 430.808594 196.773438 M 506.789062 213.898438 C 508.285156 213.898438 510.320312 209.957031 510.320312 207.058594 C 510.320312 206.210938 509.1875 205.519531 507.804688 205.519531 C 506.242188 205.519531 505.292969 207.101562 505.292969 209.707031 C 505.292969 212.011719 505.964844 213.898438 506.789062 213.898438 M 509.90625 327.835938 C 510.828125 327.835938 512.523438 326.707031 513.671875 325.324219 C 514.832031 323.921875 515.015625 322.808594 514.082031 322.808594 C 513.160156 322.808594 511.464844 323.941406 510.320312 325.324219 C 509.15625 326.726562 508.972656 327.835938 509.90625 327.835938 M 515.71875 308.472656 C 519.441406 311.078125 527.96875 311.917969 532.621094 310.132812 C 538.003906 308.066406 533.539062 303.078125 523.886719 300.367188 C 511.707031 296.953125 511.996094 296.917969 511.996094 301.769531 C 511.996094 304.101562 513.597656 306.988281 515.71875 308.472656 M 517.132812 385.714844 C 519.628906 387.253906 520.984375 385.46875 519.753906 382.261719 C 519.1875 380.777344 517.960938 380.035156 517.035156 380.613281 C 514.835938 381.96875 514.882812 384.324219 517.132812 385.714844 M 521.132812 240.125 C 526.773438 248.5 534.355469 255.785156 537.4375 255.785156 C 539.328125 255.785156 531.132812 244.113281 522.148438 234.003906 C 513.84375 224.660156 513.222656 228.386719 521.132812 240.125 "/></g></svg>